<svg xmlns="http://www.w3.org/2000/svg" viewBox="0 0 164.097 65.584"><path fill="#009CA6" d="M8.11 29.84v6.047c0 .462-.376.837-.838.837H.837c-.462 0-.837.375-.837.837v6.62c0 .46.375.84.837.84h6.435c.462 0 .837.38.837.84v6.26c0 .46.37.84.83.84h6.74c.46 0 .83-.372.83-.834V29.84c0-.463-.38-.838-.84-.838H8.94c-.462 0-.836.375-.836.837z"/><path fill="#009CA6" d="M159.918 0H12.596c-2.308 0-4.18 1.87-4.18 4.18v18.797c0 .627.51 1.135 1.136 1.135h5.446c.627 0 1.135-.508 1.135-1.135V7.717h139.283v50.15H8.522c-.058 0-.105.048-.105.106v3.432c0 2.308 1.87 4.18 4.18 4.18h147.32c2.308 0 4.18-1.872 4.18-4.18V4.18c0-2.31-1.87-4.18-4.18-4.18z"/><path fill="#CEDC00" d="M19.657 36.724h6.164c.63 0 1.13.504 1.13 1.126v6.036c0 .622-.5 1.126-1.12 1.126h-6.17c-.62 0-1.12-.504-1.12-1.126V37.85c0-.622.51-1.126 1.13-1.126z"/><path fill="#58585A" d="M44.54 24.57c-1.358 0-2.503.308-3.405.917-.93.628-1.713 1.36-2.328 2.176l-.642.85V19.01c0-.606-.492-1.098-1.098-1.098h-4.275c-.606 0-1.098.492-1.098 1.098v24.548c0 .606.492 1.098 1.098 1.098h4.275c.606 0 1.098-.492 1.098-1.098v-9.566c0-1.22.315-2.163.934-2.806.62-.646 1.43-.974 2.39-.974.94 0 1.72.33 2.31.982.57.644.87 1.585.87 2.798v9.566c0 .606.49 1.098 1.1 1.098h4.27c.6 0 1.1-.492 1.1-1.098v-11.86c0-2.23-.59-3.995-1.74-5.25-1.15-1.246-2.79-1.878-4.86-1.878zm54.69 20.085h4.274c.606 0 1.098-.492 1.098-1.098V19.01c0-.606-.492-1.098-1.098-1.098H99.23c-.606 0-1.098.492-1.098 1.098v24.548c0 .606.492 1.097 1.098 1.097zm16.33-24.787h-4.273c-.606 0-1.098.492-1.098 1.098v4.055h-1.31c-.61 0-1.1.5-1.1 1.1v2.85c0 .61.49 1.1 1.1 1.1h1.31v8.63c0 2.31.56 3.97 1.68 4.92 1.14.97 2.76 1.46 4.83 1.46.96 0 1.86-.1 2.66-.31.44-.11.87-.25 1.26-.4.412-.17.682-.573.682-1.022V39.2c-.28.112-.57.21-.86.29-.48.133-.98.2-1.49.2-.747 0-1.324-.192-1.715-.57-.398-.38-.6-.993-.6-1.818v-7.24h3.642c.603 0 1.095-.492 1.095-1.098V26.12c0-.607-.494-1.1-1.1-1.1h-3.64v-4.054c0-.607-.49-1.098-1.1-1.098zm22.82 4.702c-1.356 0-2.5.308-3.403.917-.93.628-1.714 1.36-2.328 2.176l-.65.85V19.01c0-.606-.49-1.098-1.1-1.098h-4.28c-.61 0-1.1.492-1.1 1.098v24.548c0 .606.49 1.098 1.093 1.098h4.276c.605 0 1.097-.492 1.097-1.098v-9.566c0-1.22.316-2.163.935-2.806.625-.646 1.43-.974 2.392-.974.943 0 1.72.33 2.31.982.58.644.87 1.585.87 2.798v9.566c0 .606.493 1.098 1.1 1.098h4.273c.607 0 1.1-.492 1.1-1.098v-11.86c0-2.228-.583-3.994-1.74-5.25-1.146-1.246-2.78-1.878-4.86-1.878zm-65.36 6.612c-.398-1.29-1.008-2.438-1.815-3.413-.803-.97-1.836-1.76-3.072-2.33-1.24-.58-2.726-.87-4.42-.87-1.446 0-2.79.26-3.993.79-1.202.53-2.258 1.27-3.14 2.19-.88.93-1.568 2.03-2.05 3.27-.483 1.24-.728 2.59-.728 4.02v.072c0 1.53.263 2.94.782 4.19.518 1.25 1.25 2.33 2.173 3.207.926.88 2.044 1.575 3.325 2.07 1.28.496 2.72.747 4.272.747 1.963 0 3.66-.367 5.044-1.09.916-.476 1.74-1.064 2.467-1.755.472-.45.43-1.22-.072-1.635l-1.82-1.505c-.4-.336-.975-.33-1.384-.01-.46.354-.91.64-1.37.842-.76.344-1.6.52-2.5.52-1.2 0-2.23-.3-3.05-.896-.83-.595-1.4-1.51-1.7-2.72l-.04-.165-.06-.274.264-.004H72.8c.445 0 .807-.36.807-.81v-.3c0-1.465-.204-2.865-.605-4.166zm-5.448 1.545h-7.62c.232-1.012.628-1.856 1.203-2.49.67-.74 1.544-1.115 2.597-1.115 1.075 0 1.972.373 2.667 1.11.67.718 1.09 1.692 1.22 2.893-.02-.14-.05-.265-.07-.398zm26.124-3.047c-.318-1.002-.85-1.87-1.582-2.578-.762-.763-1.76-1.354-2.97-1.762-1.224-.412-2.75-.62-4.53-.62-1.718 0-3.23.142-4.492.424-.794.177-1.567.393-2.312.644-.56.19-.878.782-.712 1.35l.663 2.28c.17.584.79.918 1.37.74.44-.136.88-.253 1.31-.35.9-.207 1.92-.31 3.02-.31 1.47 0 2.58.32 3.3.952.64.556 1.01 1.312 1.1 2.25-.49-.14-1.05-.27-1.69-.39-.91-.173-1.88-.26-2.882-.26-1.262 0-2.42.146-3.446.434-1.01.286-1.88.704-2.58 1.24-.697.533-1.25 1.214-1.643 2.025-.395.81-.595 1.77-.595 2.85v.08c0 1.05.18 1.99.537 2.78.354.78.85 1.45 1.47 1.98.624.54 1.37.95 2.213 1.23.85.28 1.8.43 2.816.43 1.404 0 2.62-.24 3.607-.72.816-.4 1.545-.91 2.183-1.52v.68c0 .602.49 1.1 1.096 1.1h4.16c.608 0 1.1-.49 1.1-1.1V33.31c0-1.386-.164-2.61-.49-3.634zm-5.912 9.06c-.196.453-.496.847-.9 1.178-.77.63-1.78.95-3.005.95-.87 0-1.61-.212-2.18-.632-.61-.434-.91-1.048-.91-1.823v-.072c0-.82.35-1.49 1.05-2 .67-.49 1.63-.74 2.84-.74.58 0 1.16.05 1.71.15.54.1 1.02.23 1.42.38l-.04 2.62z"/></svg>